# xmcd
#
# Track frame offsets:
#	150
#	17334
#	34035
#	52509
#	67519
#	84485
#	99853
#	114961
#	131908
#	147052
#
# Disc length: 2212 seconds
#
# Revision: 1
# Processed by: cddbd v1.5.2PL0 Copyright (c) Steve Scherf et al.
# Submitted via: audiograbber 1.83.01
#
DISCID=6608a20a
DTITLE=Mac McAnally - Nothing But The Truth
DYEAR=1983
DGENRE=
TTITLE0=How Cool
TTITLE1=Middle Man
TTITLE2=On The Line
TTITLE3=Minimum Love
TTITLE4=Lookin' For The Good Life
TTITLE5=Like Your Mother
TTITLE6=The City
TTITLE7=Nothin' But The Truth
TTITLE8=Other People Say
TTITLE9=Dark Ages
EXTD=Universal Music Special Projects (c) 2007
EXTT0=
EXTT1=
EXTT2=
EXTT3=
EXTT4=
EXTT5=
EXTT6=
EXTT7=
EXTT8=
EXTT9=
PLAYORDER=
